<?xml version="1.0" encoding="UTF-8"?>
<svg version="1.1" xmlns="http://www.w3.org/2000/svg" width="100" height="100">
<path d="M0 0 C8.64822802 6.87119486 15.44311132 18.01837448 17 29 C18.40895106 46.55709566 15.56638733 59.95954698 4.4140625 73.99609375 C-3.81286908 83.00558711 -15.56118495 88.6401856 -27.6484375 89.3125 C-44.13318085 89.87527929 -57.29779856 86.1831071 -69.75 74.8125 C-80.88341536 62.87619411 -83.80272194 49.59143924 -83.34375 33.85546875 C-82.66010765 21.18611097 -76.33281061 9.26446012 -67.0703125 0.625 C-46.64754218 -15.40494803 -20.73790664 -15.44661826 0 0 Z M-66.32421875 10.54296875 C-75.00002545 21.65634037 -77.32745953 33.21377963 -76 47 C-73.8608423 58.29742661 -67.76643625 67.39869479 -58.75 74.4375 C-47.34852266 82.05412478 -35.05960395 83.90477708 -21.69921875 81.375 C-9.44010445 77.81333774 -0.29368254 70.00283795 6 59 C11.23012657 48.34713596 11.79726289 36.03656111 8.5 24.6875 C3.84273494 12.72790298 -4.34097822 4.25123044 -15.80859375 -1.37890625 C-33.80275757 -8.38613151 -53.35305658 -3.64900869 -66.32421875 10.54296875 Z " fill="#EA258E" transform="translate(83,11)"/>
<path d="M0 0 C2 2 2 2 2.29223633 4.39282227 C1.95433067 7.40743754 1.28743137 8.44601794 -0.67578125 10.71484375 C-1.25158936 11.39466309 -1.82739746 12.07448242 -2.4206543 12.77490234 C-3.04496338 13.48855957 -3.66927246 14.2022168 -4.3125 14.9375 C-5.59780595 16.4479846 -6.88163941 17.9597233 -8.1640625 19.47265625 C-9.13134277 20.60598389 -9.13134277 20.60598389 -10.11816406 21.76220703 C-13.36877481 25.62768421 -16.44981448 29.62265468 -19.53442383 33.62084961 C-20.67587327 35.09133762 -21.83686914 36.54660108 -23 38 C-23.47050781 38.64195313 -23.94101562 39.28390625 -24.42578125 39.9453125 C-26 41 -26 41 -28.63671875 41.203125 C-33.84548735 39.33982566 -37.01282532 35.66952801 -40.8125 31.75 C-41.58787109 30.98558594 -42.36324219 30.22117187 -43.16210938 29.43359375 C-49.57699779 22.93452045 -49.57699779 22.93452045 -50 18 C-48.875 15.6875 -48.875 15.6875 -47 14 C-44.80859375 13.48828125 -44.80859375 13.48828125 -42 14 C-39.46308151 15.91413017 -37.35068204 18.18006564 -35.1875 20.5 C-34.59001953 21.12003906 -33.99253906 21.74007812 -33.37695312 22.37890625 C-31.90642559 23.90825488 -30.4516427 25.45271466 -29 27 C-25.15074441 23.30387935 -21.82274589 19.40721421 -18.5625 15.1875 C-18.08240479 14.57237549 -17.60230957 13.95725098 -17.10766602 13.32348633 C-14.04212578 9.38489185 -11.03373981 5.40897321 -8.12109375 1.35546875 C-5.62484531 -1.66264348 -3.48517254 -0.95842245 0 0 Z " fill="#EA258E" transform="translate(75,30)"/>
</svg>
